<?xml version="1.0" encoding="UTF-8" standalone="no"?>
<!DOCTYPE svg PUBLIC "-//W3C//DTD SVG 1.1//EN" "http://www.w3.org/Graphics/SVG/1.1/DTD/svg11.dtd">
<svg width="100%" height="100%" viewBox="0 0 300 300" version="1.1" xmlns="http://www.w3.org/2000/svg" xmlns:xlink="http://www.w3.org/1999/xlink" xml:space="preserve" xmlns:serif="http://www.serif.com/" style="fill-rule:evenodd;clip-rule:evenodd;stroke-linejoin:round;stroke-miterlimit:2;">
    <g transform="matrix(0.900941,0,0,0.900941,14.8588,14.0706)">
        <path d="M185.033,12.806L310.847,230.85C318.068,243.365 318.065,258.78 310.84,271.292C303.614,283.804 290.263,291.511 275.814,291.511L24.186,291.511C9.737,291.511 -3.614,283.804 -10.84,271.292C-18.065,258.78 -18.068,243.365 -10.847,230.85L114.967,12.806C122.191,0.287 135.546,-7.426 150,-7.426C164.454,-7.426 177.809,0.287 185.033,12.806ZM170.879,20.973C166.574,13.512 158.614,8.915 150,8.915C141.386,8.915 133.426,13.512 129.121,20.973L3.307,239.017C-0.997,246.475 -0.995,255.663 3.311,263.12C7.618,270.577 15.575,275.17 24.186,275.17L275.814,275.17C284.425,275.17 292.382,270.577 296.689,263.12C300.995,255.663 300.997,246.475 296.693,239.017L170.879,20.973ZM130.183,91.37C129.939,89.071 130.683,86.776 132.229,85.058C133.776,83.339 135.979,82.357 138.291,82.357L161.709,82.357C164.021,82.357 166.224,83.339 167.771,85.058C169.317,86.776 170.061,89.071 169.817,91.37L159.395,189.797C158.955,193.944 155.457,197.092 151.286,197.092L148.714,197.092C144.543,197.092 141.045,193.944 140.605,189.797L130.183,91.37ZM150,211.396C158.299,211.396 165.037,218.134 165.037,226.434C165.037,234.733 158.299,241.471 150,241.471C141.701,241.471 134.963,234.733 134.963,226.434C134.963,218.134 141.701,211.396 150,211.396Z" style="fill:white;"/>
    </g>
</svg>
