<?xml version="1.0" encoding="UTF-8" standalone="no"?>
<!DOCTYPE svg PUBLIC "-//W3C//DTD SVG 1.1//EN" "http://www.w3.org/Graphics/SVG/1.1/DTD/svg11.dtd">
<svg width="100%" height="100%" viewBox="0 0 270 270" version="1.1" xmlns="http://www.w3.org/2000/svg" xmlns:xlink="http://www.w3.org/1999/xlink" xml:space="preserve" xmlns:serif="http://www.serif.com/" style="fill-rule:evenodd;clip-rule:evenodd;stroke-linejoin:round;stroke-miterlimit:2;">
    <g transform="matrix(1,0,0,1,0,-30.5949)">
        <path d="M229.786,129.176C231.244,127.717 233.438,127.281 235.344,128.07C237.249,128.86 238.492,130.719 238.492,132.782C238.492,168.791 238.492,271.381 238.492,271.381C238.492,287.176 225.668,300 209.873,300L28.619,300C12.824,300 0,287.176 0,271.381L0,90.127C0,74.332 12.824,61.508 28.619,61.508L167.218,61.508C169.281,61.508 171.14,62.751 171.93,64.656C172.719,66.562 172.283,68.756 170.824,70.214C165.48,75.559 159.134,81.904 156.302,84.737C155.345,85.693 154.048,86.23 152.696,86.23C136.196,86.23 28.619,86.23 28.619,86.23C26.468,86.23 24.722,87.976 24.722,90.127L24.722,271.381C24.722,273.532 26.468,275.278 28.619,275.278L209.873,275.278C212.024,275.278 213.77,273.532 213.77,271.381L213.77,147.304C213.77,145.952 214.307,144.655 215.263,143.698C218.096,140.866 224.441,134.52 229.786,129.176ZM217.726,62.915C217.726,62.915 203.701,48.871 194.141,39.299C192.684,37.84 192.249,35.647 193.038,33.742C193.828,31.837 195.687,30.595 197.75,30.595C216.469,30.595 251.307,30.595 264.346,30.595C265.698,30.595 266.995,31.132 267.952,32.089C268.908,33.045 269.446,34.342 269.446,35.695C269.446,48.744 269.446,83.63 269.446,102.379C269.446,104.443 268.202,106.303 266.296,107.092C264.389,107.881 262.195,107.443 260.737,105.983C251.148,96.382 237.072,82.287 237.072,82.287C237.072,82.287 130.582,188.777 109.486,209.873C107.495,211.864 104.265,211.864 102.274,209.873C98.806,206.405 93.595,201.194 90.127,197.726C88.136,195.735 88.136,192.505 90.127,190.514C111.224,169.417 217.726,62.915 217.726,62.915Z"/>
    </g>
</svg>
