<?xml version="1.0" encoding="UTF-8" standalone="no"?>
<!DOCTYPE svg PUBLIC "-//W3C//DTD SVG 1.1//EN" "http://www.w3.org/Graphics/SVG/1.1/DTD/svg11.dtd">
<svg width="100%" height="100%" viewBox="0 0 50 82" version="1.1" xmlns="http://www.w3.org/2000/svg" xmlns:xlink="http://www.w3.org/1999/xlink" xml:space="preserve" xmlns:serif="http://www.serif.com/" style="fill-rule:evenodd;clip-rule:evenodd;stroke-linejoin:round;stroke-miterlimit:2;">
    <g transform="matrix(1,0,0,1,-25.0485,-12.5)">
        <path d="M60.693,80.236L59.314,82.332C59.153,82.576 58.881,82.723 58.589,82.723L41.505,82.723C41.219,82.723 40.952,82.582 40.79,82.346L39.354,80.249C39.172,79.984 39.152,79.64 39.302,79.355C39.452,79.07 39.747,78.892 40.069,78.892L59.968,78.892C60.287,78.892 60.58,79.067 60.731,79.348C60.883,79.628 60.868,79.969 60.693,80.236ZM59.328,85.804L57.949,87.9C57.788,88.144 57.516,88.291 57.224,88.291L42.776,88.291C42.484,88.291 42.212,88.144 42.051,87.9L40.672,85.804C40.497,85.537 40.482,85.196 40.633,84.916C40.785,84.635 41.078,84.46 41.397,84.46L58.603,84.46C58.922,84.46 59.215,84.635 59.367,84.916C59.518,85.196 59.503,85.537 59.328,85.804ZM58.009,91.357L56.687,93.454C56.528,93.706 56.251,93.859 55.954,93.859L44.141,93.859C43.849,93.859 43.576,93.712 43.416,93.468L42.037,91.371C41.862,91.105 41.847,90.764 41.998,90.483C42.15,90.203 42.443,90.028 42.761,90.028L57.275,90.028C57.591,90.028 57.882,90.199 58.034,90.476C58.187,90.752 58.177,91.09 58.009,91.357ZM25.682,43.135C25.239,41.305 25.007,39.439 25.055,37.52C25.065,23.707 36.241,12.5 50,12.5C63.756,12.5 74.93,23.702 74.945,37.496C74.994,39.429 74.762,41.301 74.318,43.135C73.941,44.789 73.401,46.381 72.72,47.884C70.895,52.206 68.194,56.438 65.943,60.993C63.851,65.227 62.15,69.757 62.15,74.992L62.15,76.042C62.15,76.337 62.033,76.62 61.824,76.829C61.615,77.038 61.332,77.155 61.037,77.155L38.963,77.155C38.668,77.155 38.385,77.038 38.176,76.829C37.967,76.62 37.85,76.337 37.85,76.042L37.85,74.992C37.85,69.757 36.149,65.227 34.057,60.993C31.807,56.441 29.109,52.212 27.296,47.919C26.605,46.4 26.061,44.799 25.682,43.135Z" style="fill:white;"/>
    </g>
</svg>
