<?xml version="1.0" encoding="UTF-8" standalone="no"?>
<!DOCTYPE svg PUBLIC "-//W3C//DTD SVG 1.1//EN" "http://www.w3.org/Graphics/SVG/1.1/DTD/svg11.dtd">
<svg width="100%" height="100%" viewBox="0 0 50 82" version="1.1" xmlns="http://www.w3.org/2000/svg" xmlns:xlink="http://www.w3.org/1999/xlink" xml:space="preserve" xmlns:serif="http://www.serif.com/" style="fill-rule:evenodd;clip-rule:evenodd;stroke-linejoin:round;stroke-miterlimit:2;">
    <g transform="matrix(1,0,0,1,-25.0485,-12.5)">
        <g transform="matrix(0.86512,0,0,0.86512,6.74398,9.88383)">
            <path d="M62.36,81.32L60.766,83.744C60.58,84.026 60.266,84.196 59.928,84.196L40.181,84.196C39.85,84.196 39.541,84.032 39.354,83.76L37.694,81.336C37.483,81.029 37.46,80.631 37.634,80.302C37.807,79.973 38.149,79.767 38.521,79.767L61.522,79.767C61.891,79.767 62.23,79.97 62.404,80.294C62.579,80.618 62.562,81.013 62.36,81.32ZM60.782,87.756L59.188,90.18C59.003,90.462 58.688,90.631 58.351,90.631L41.649,90.631C41.312,90.631 40.997,90.462 40.812,90.18L39.218,87.756C39.015,87.448 38.998,87.054 39.173,86.73C39.348,86.405 39.687,86.203 40.055,86.203L59.945,86.203C60.313,86.203 60.652,86.405 60.827,86.73C61.002,87.054 60.985,87.448 60.782,87.756ZM59.257,94.176L57.73,96.599C57.546,96.891 57.226,97.067 56.882,97.067L43.227,97.067C42.89,97.067 42.575,96.897 42.39,96.616L40.796,94.192C40.593,93.884 40.576,93.49 40.751,93.166C40.926,92.841 41.264,92.639 41.633,92.639L58.409,92.639C58.774,92.639 59.111,92.838 59.287,93.157C59.463,93.477 59.452,93.867 59.257,94.176Z" style="fill:rgb(47,47,47);"/>
        </g>
        <g transform="matrix(0.86512,0,0,0.86512,6.74398,9.88383)">
            <path d="M21.89,38.436C21.379,36.32 21.11,34.163 21.166,31.945C21.177,15.978 34.096,3.024 50,3.024C65.901,3.024 78.817,15.973 78.834,31.917C78.891,34.151 78.622,36.315 78.11,38.436C77.674,40.348 77.05,42.188 76.262,43.924C74.152,48.921 71.031,53.812 68.429,59.077C66.01,63.972 64.044,69.208 64.044,75.26L64.044,76.473C64.044,76.814 63.909,77.141 63.668,77.383C63.426,77.624 63.099,77.76 62.758,77.76C58.069,77.76 41.931,77.76 37.242,77.76C36.901,77.76 36.574,77.624 36.332,77.383C36.091,77.141 35.956,76.814 35.956,76.473C35.956,75.86 35.956,75.26 35.956,75.26C35.956,69.208 33.99,63.972 31.571,59.077C28.971,53.816 25.852,48.928 23.757,43.966C22.958,42.209 22.328,40.359 21.89,38.436ZM57.171,75.26L60.291,75.26C60.985,75.259 61.553,74.709 61.576,74.016C62.074,61.722 69.921,52.531 73.967,42.932C74.699,41.323 75.275,39.627 75.676,37.864C76.141,35.946 76.388,33.989 76.334,31.967C76.334,17.373 64.534,5.524 50,5.524C35.466,5.524 23.666,17.373 23.666,31.967C23.612,33.989 23.859,35.946 24.324,37.864C24.725,39.627 25.301,41.323 26.033,42.932C30.079,52.531 37.926,61.722 38.43,74.016C38.453,74.705 39.019,75.252 39.709,75.252C41.001,75.26 42.829,75.26 42.829,75.26C43.07,57.869 38.444,45.435 38.626,40.08C38.644,39.549 41.14,36.852 42.261,36.852C43.753,36.852 44.895,39.314 46.14,39.314C47.459,39.314 48.607,36.87 50,36.87C51.393,36.87 52.541,39.314 53.86,39.314C55.105,39.314 56.247,36.852 57.739,36.852C58.86,36.852 61.356,39.549 61.374,40.08C61.556,45.435 56.93,57.869 57.171,75.26ZM45.346,75.26L54.654,75.26C54.163,60.312 58.885,43.707 58.885,40.752C58.885,40.224 58.017,39.659 57.489,39.659C56.292,39.659 55.386,42.515 53.8,42.515C52.55,42.515 51.524,40.107 50,40.107C48.476,40.107 47.45,42.515 46.2,42.515C44.614,42.515 43.708,39.659 42.511,39.659C41.983,39.659 41.115,40.224 41.115,40.752C41.115,43.707 45.837,60.312 45.346,75.26Z"/>
        </g>
    </g>
</svg>
