<?xml version="1.0" encoding="UTF-8" standalone="no"?>
<!DOCTYPE svg PUBLIC "-//W3C//DTD SVG 1.1//EN" "http://www.w3.org/Graphics/SVG/1.1/DTD/svg11.dtd">
<svg width="100%" height="100%" viewBox="0 0 300 300" version="1.1" xmlns="http://www.w3.org/2000/svg" xmlns:xlink="http://www.w3.org/1999/xlink" xml:space="preserve" xmlns:serif="http://www.serif.com/" style="fill-rule:evenodd;clip-rule:evenodd;stroke-linejoin:round;stroke-miterlimit:2;">
    <g id="pencile">
    </g>
    <path id="outlined" d="M211.701,107.232L70.98,107.232L70.98,98.149L217.341,98.149L217.341,100.013L211.701,107.232ZM196.86,192.768L217.341,192.768L217.341,201.851L189.763,201.851L196.86,192.768ZM137.086,201.851L70.98,201.851L70.98,192.768L144.873,192.768L143.553,194.457L139.784,198.847L137.387,201.503C137.284,201.617 137.183,201.733 137.086,201.851ZM174.739,154.542L70.98,154.542L70.98,145.458L181.835,145.458L174.739,154.542ZM217.341,50.84L217.341,59.923L70.98,59.923L70.98,50.84L217.341,50.84ZM217.341,240.077L217.341,249.16L70.98,249.16L70.98,240.077L217.341,240.077ZM259.707,112.328L259.707,270.953C259.707,286.842 246.806,299.743 230.917,299.743L57.404,299.743C41.514,299.743 28.614,286.842 28.614,270.953L28.614,29.047C28.614,13.158 41.514,0.257 57.404,0.257L230.917,0.257C246.806,0.257 259.707,13.158 259.707,29.047L259.707,58.223C258.605,58.146 257.491,58.174 256.38,58.31C251.93,58.857 247.869,61.101 245.04,64.567L245.04,29.047C245.04,21.252 238.711,14.924 230.917,14.924L57.404,14.924C49.609,14.924 43.281,21.252 43.281,29.047L43.281,270.953C43.281,278.748 49.609,285.076 57.404,285.076L230.917,285.076C238.711,285.076 245.04,278.748 245.04,270.953L245.04,131.1L259.707,112.328ZM142.454,229.134L145.347,208.688L147.833,205.933L163.664,218.302L161.593,221.381L142.454,229.134ZM167.232,213.272L151.851,201.254L253.258,71.459C254.343,70.07 255.936,69.168 257.686,68.954C259.437,68.739 261.2,69.228 262.59,70.313L267.494,74.145C268.883,75.23 269.784,76.823 269.999,78.573C270.214,80.324 269.725,82.087 268.639,83.477L167.232,213.272Z" style="fill:white;"/>
</svg>
