<?xml version="1.0" encoding="UTF-8" standalone="no"?>
<!DOCTYPE svg PUBLIC "-//W3C//DTD SVG 1.1//EN" "http://www.w3.org/Graphics/SVG/1.1/DTD/svg11.dtd">
<svg width="100%" height="100%" viewBox="0 0 300 300" version="1.1" xmlns="http://www.w3.org/2000/svg" xmlns:xlink="http://www.w3.org/1999/xlink" xml:space="preserve" xmlns:serif="http://www.serif.com/" style="fill-rule:evenodd;clip-rule:evenodd;stroke-linejoin:round;stroke-miterlimit:2;">
    <g transform="matrix(0.909052,0,0,0.909052,13.3708,13.6422)">
        <path id="outline" d="M14.194,137.329C13.471,130.938 14.67,126.316 16.326,122.909C19.18,117.036 23.924,113.384 29.938,111.452C35.31,109.725 40.663,109.902 45.672,112.119C50.869,114.419 56.887,119.453 60.161,131.094C60.257,131.434 60.349,131.773 60.432,132.094L60.629,132.744L147.016,182.252L233.404,132.743C233.522,132.356 233.598,132.104 233.597,132.107C233.685,131.77 233.776,131.432 233.871,131.094C237.145,119.453 243.164,114.419 248.361,112.119C253.369,109.902 258.723,109.725 264.094,111.452C270.109,113.384 274.852,117.036 277.707,122.909C279.364,126.319 280.564,130.948 279.84,137.333C285.23,140.347 288.203,144.032 289.984,147.508C292.75,152.909 293.049,158.758 291.338,164.744C289.394,171.543 285.224,176.69 278.887,179.489C274.273,181.526 267.743,182.572 258.731,179.629C258.494,179.551 258.257,179.472 258.03,179.394L200.029,212.634L258.03,245.874C258.263,245.794 258.496,245.716 258.731,245.639C267.743,242.696 274.273,243.742 278.887,245.779C285.224,248.578 289.394,253.725 291.338,260.524C293.049,266.51 292.75,272.359 289.984,277.76C288.2,281.242 285.22,284.933 279.838,287.939C280.561,294.33 279.363,298.952 277.707,302.359C274.852,308.232 270.109,311.884 264.094,313.816C258.723,315.543 253.369,315.366 248.361,313.149C243.164,310.849 237.145,305.815 233.871,294.174C233.775,293.834 233.684,293.495 233.601,293.174L233.404,292.524L147.016,243.016L60.628,292.525C60.511,292.912 60.434,293.164 60.435,293.161C60.348,293.498 60.257,293.836 60.161,294.174C56.887,305.815 50.869,310.849 45.672,313.149C40.663,315.366 35.31,315.543 29.938,313.816C23.924,311.884 19.18,308.232 16.326,302.359C14.668,298.949 13.469,294.32 14.193,287.935C8.803,284.921 5.83,281.236 4.049,277.76C1.282,272.359 0.984,266.51 2.695,260.524C4.638,253.725 8.809,248.578 15.145,245.779C19.759,243.742 26.289,242.696 35.301,245.639C35.539,245.717 35.775,245.796 36.002,245.874L94.003,212.634L36.002,179.394C35.77,179.474 35.536,179.552 35.301,179.629C26.289,182.572 19.759,181.526 15.145,179.489C8.809,176.69 4.638,171.543 2.695,164.744C0.984,158.758 1.282,152.909 4.049,147.508C5.833,144.026 8.813,140.335 14.194,137.329ZM124.091,212.634L39.328,261.211C38.371,261.76 37.254,261.89 36.21,261.575L31.556,260.17C31.26,260.063 30.96,259.959 30.656,259.86C22.184,257.093 18.41,259.981 17.079,264.636C15.83,269.005 16.678,273.226 24.308,276.182C24.602,276.323 24.907,276.442 25.224,276.539L25.751,276.699C25.779,276.708 25.807,276.718 25.835,276.727C26.102,276.814 26.368,276.897 26.634,276.975C27.978,277.461 29.103,278.479 29.775,279.825C30.447,281.171 30.612,282.738 30.243,284.206C30.156,284.487 30.073,284.77 29.992,285.056C29.984,285.086 29.975,285.117 29.967,285.147L29.799,285.705C29.698,286.041 29.621,286.38 29.567,286.719C27.625,295.161 30.431,298.261 34.515,299.573C38.867,300.972 43.203,299.211 45.76,290.123C45.851,289.798 45.938,289.473 46.019,289.149L47.512,284.222C47.847,283.117 48.569,282.193 49.526,281.644L147.016,225.772L244.507,281.644C245.464,282.193 246.186,283.117 246.521,284.222L248.014,289.149C248.095,289.473 248.181,289.798 248.273,290.123C250.829,299.211 255.166,300.972 259.517,299.573C263.602,298.261 266.407,295.161 264.465,286.719C264.412,286.38 264.335,286.041 264.234,285.705L264.066,285.147C264.057,285.117 264.049,285.086 264.04,285.056C263.96,284.77 263.876,284.487 263.79,284.206C263.421,282.738 263.586,281.171 264.258,279.825C264.929,278.479 266.054,277.461 267.399,276.975C267.664,276.897 267.931,276.814 268.197,276.727C268.225,276.718 268.254,276.708 268.282,276.699L268.808,276.539C269.125,276.442 269.431,276.323 269.724,276.182C277.354,273.226 278.202,269.005 276.953,264.636C275.623,259.981 271.849,257.093 263.376,259.86C263.073,259.959 262.773,260.063 262.476,260.17L257.823,261.575C256.779,261.89 255.661,261.76 254.704,261.211L169.942,212.634L254.704,164.057C255.661,163.508 256.779,163.378 257.823,163.693L262.476,165.098C262.773,165.205 263.073,165.309 263.376,165.408C271.849,168.175 275.623,165.287 276.953,160.632C278.202,156.263 277.354,152.042 269.724,149.086C269.431,148.945 269.125,148.826 268.808,148.729L268.282,148.569C268.254,148.56 268.225,148.55 268.197,148.541C267.931,148.454 267.664,148.371 267.399,148.293C266.054,147.807 264.929,146.789 264.258,145.443C263.586,144.097 263.421,142.53 263.79,141.062C263.876,140.781 263.96,140.498 264.04,140.212C264.049,140.182 264.057,140.151 264.066,140.121L264.234,139.563C264.335,139.227 264.412,138.888 264.465,138.549C266.407,130.107 263.602,127.007 259.517,125.695C255.166,124.296 250.829,126.057 248.273,135.145C248.181,135.47 248.095,135.795 248.014,136.119L246.521,141.046C246.186,142.151 245.464,143.075 244.507,143.624L147.016,199.496L49.526,143.624C48.569,143.075 47.847,142.151 47.512,141.046L46.019,136.119C45.938,135.795 45.851,135.47 45.76,135.145C43.203,126.057 38.867,124.296 34.515,125.695C30.431,127.007 27.625,130.107 29.567,138.549C29.621,138.888 29.698,139.227 29.799,139.563L29.967,140.121C29.975,140.151 29.984,140.182 29.992,140.212C30.073,140.498 30.156,140.781 30.243,141.062C30.612,142.53 30.447,144.097 29.775,145.443C29.103,146.789 27.978,147.807 26.634,148.293C26.368,148.371 26.102,148.454 25.835,148.541C25.807,148.55 25.779,148.56 25.751,148.569L25.224,148.729C24.907,148.826 24.602,148.945 24.308,149.086C16.678,152.042 15.83,156.263 17.079,160.632C18.41,165.287 22.184,168.175 30.656,165.408C30.96,165.309 31.26,165.205 31.556,165.098L36.21,163.693C37.254,163.378 38.371,163.508 39.328,164.057L124.091,212.634ZM147.023,165.901L147.014,165.901C145.797,165.924 144.575,165.936 143.349,165.936C136.585,165.936 129.941,165.577 123.457,164.887C123.439,164.885 123.421,164.883 123.403,164.881C115.149,163.972 108.137,158.438 105.322,150.594C99.486,134.468 86.308,124.983 70.218,119.507C61.988,116.739 56.197,109.335 55.494,100.68L55.493,100.67C55.235,97.467 55.105,94.221 55.105,90.939C55.105,31.861 97.025,-14.961 147.016,-14.961C187.751,-14.961 222.988,15.797 234.77,59.343C237.466,69.307 238.927,79.924 238.927,90.939C238.927,94.212 238.798,97.45 238.546,100.645C238.545,100.657 238.544,100.669 238.543,100.681C237.84,109.337 232.048,116.743 223.864,119.495C207.71,124.989 194.526,134.485 188.679,150.624C185.876,158.427 178.872,163.954 170.626,164.861L170.623,164.862C164.125,165.575 157.465,165.936 150.684,165.936C149.459,165.936 148.239,165.924 147.023,165.901ZM147.016,150.937C148.234,150.963 149.457,150.975 150.684,150.975C156.909,150.975 163.024,150.646 168.99,149.99C171.559,149.708 173.741,147.981 174.607,145.545C182.061,124.95 198.438,112.341 219.047,105.331C221.61,104.469 223.413,102.164 223.632,99.469C223.853,96.661 223.967,93.816 223.967,90.939C223.967,81.286 222.691,71.982 220.329,63.25C210.408,26.581 181.318,-0 147.016,-0C104.546,-0 70.066,40.749 70.066,90.939C70.066,93.816 70.179,96.661 70.405,99.469C70.624,102.162 72.426,104.466 74.987,105.327C95.594,112.341 111.971,124.95 119.407,145.551C120.275,147.995 122.463,149.727 125.041,150.01C131.009,150.646 137.123,150.975 143.349,150.975C144.576,150.975 145.798,150.963 147.016,150.937ZM147.016,102.072C149.434,102.072 160.741,117.521 160.983,122.3C161.133,125.274 148.808,122.588 147.016,122.588C145.225,122.588 132.9,125.274 133.05,122.3C133.291,117.521 144.598,102.072 147.016,102.072ZM108.1,73.984C117.798,69.484 128.487,72.55 131.956,80.825C135.425,89.1 130.368,99.471 120.671,103.97C110.973,108.47 100.284,105.404 96.815,97.129C93.346,88.854 98.403,78.483 108.1,73.984ZM185.932,73.984C195.63,78.483 200.686,88.854 197.218,97.129C193.749,105.404 183.059,108.47 173.362,103.97C163.664,99.471 158.607,89.1 162.076,80.825C165.545,72.55 176.235,69.484 185.932,73.984Z"/>
    </g>
</svg>
