<?xml version="1.0" encoding="UTF-8" standalone="no"?>
<!DOCTYPE svg PUBLIC "-//W3C//DTD SVG 1.1//EN" "http://www.w3.org/Graphics/SVG/1.1/DTD/svg11.dtd">
<svg width="100%" height="100%" viewBox="0 0 300 300" version="1.1" xmlns="http://www.w3.org/2000/svg" xmlns:xlink="http://www.w3.org/1999/xlink" xml:space="preserve" xmlns:serif="http://www.serif.com/" style="fill-rule:evenodd;clip-rule:evenodd;stroke-linejoin:round;stroke-miterlimit:2;">
    <path id="outline" d="M107.031,278.687C104.513,277.767 101.775,277.637 99.181,278.313L99.164,278.318C76.59,284.177 18.448,299.344 18.448,299.344C13.44,300.65 8.115,299.205 4.455,295.545C0.795,291.885 -0.65,286.56 0.656,281.552L21.714,200.827C22.392,198.228 22.261,195.483 21.339,192.96C15.715,177.631 12.657,161.074 12.657,143.809C12.657,64.59 76.972,0.275 156.191,0.275C235.41,0.275 299.725,64.59 299.725,143.809C299.725,223.028 235.41,287.343 156.191,287.343C138.928,287.343 122.373,284.286 107.037,278.689L107.031,278.687ZM112.036,264.989C125.812,270.017 140.684,272.76 156.191,272.76C227.361,272.76 285.142,214.979 285.142,143.809C285.142,72.639 227.361,14.858 156.191,14.858C85.021,14.858 27.24,72.639 27.24,143.809C27.24,159.316 29.983,174.188 35.036,187.955C36.976,193.264 37.252,199.038 35.825,204.507L14.767,285.233C14.767,285.233 72.921,270.063 95.5,264.202C100.964,262.777 106.732,263.052 112.036,264.989ZM162.952,109.209C165.952,109.209 168.384,111.641 168.384,114.641L168.384,215.522C168.384,219.785 170.785,223.685 174.593,225.604L183.134,229.91C183.597,230.143 183.839,230.664 183.719,231.168C183.599,231.672 183.148,232.028 182.63,232.028L147.048,232.028C144.048,232.028 141.616,229.596 141.616,226.596L141.616,125.715C141.616,121.452 139.215,117.552 135.407,115.633L126.866,111.328C126.403,111.094 126.161,110.574 126.281,110.069C126.401,109.565 126.852,109.209 127.37,109.209L162.952,109.209ZM147.048,87.122C144.048,87.122 141.616,84.691 141.616,81.691L141.616,65.404C141.616,62.404 144.048,59.972 147.048,59.972L162.952,59.972C165.952,59.972 168.384,62.404 168.384,65.404L168.384,81.691C168.384,84.691 165.952,87.122 162.952,87.122L147.048,87.122Z"/>
</svg>
