<?xml version="1.0" encoding="UTF-8" standalone="no"?>
<!DOCTYPE svg PUBLIC "-//W3C//DTD SVG 1.1//EN" "http://www.w3.org/Graphics/SVG/1.1/DTD/svg11.dtd">
<svg width="100%" height="100%" viewBox="0 0 106 106" version="1.1" xmlns="http://www.w3.org/2000/svg" xmlns:xlink="http://www.w3.org/1999/xlink" xml:space="preserve" xmlns:serif="http://www.serif.com/" style="fill-rule:evenodd;clip-rule:evenodd;stroke-linejoin:round;stroke-miterlimit:2;">
    <g transform="matrix(1,0,0,1,-36.2955,-65.6439)">
        <g transform="matrix(0.707107,0.707107,-0.707107,0.707107,73.2684,-66.2464)">
            <path d="M131.005,110.169C134.201,108.679 137.766,107.846 141.526,107.846L141.528,107.846C155.294,107.846 166.453,119.006 166.453,132.771L166.453,158.564C166.453,172.33 155.294,183.489 141.528,183.489L141.526,183.489C127.76,183.489 116.601,172.33 116.601,158.564L116.601,132.771C116.601,129.536 117.217,126.445 118.339,123.609C120.492,126.446 123.154,128.875 126.188,130.762C126.103,131.42 126.059,132.09 126.059,132.771L126.059,158.564C126.059,167.106 132.984,174.031 141.526,174.031L141.528,174.031C150.07,174.031 156.995,167.106 156.995,158.564L156.995,132.771C156.995,124.229 150.07,117.305 141.528,117.305L141.526,117.305C141.302,117.305 141.079,117.309 140.858,117.319C136.369,117.062 132.578,114.173 131.005,110.169ZM152.049,128.64C148.852,130.13 145.287,130.962 141.528,130.962L141.526,130.962C127.76,130.962 116.601,119.803 116.601,106.037L116.601,80.245C116.601,66.479 127.76,55.32 141.526,55.32L141.528,55.32C155.294,55.32 166.453,66.479 166.453,80.245L166.453,106.037C166.453,109.272 165.837,112.364 164.715,115.2C162.562,112.363 159.9,109.933 156.865,108.047C156.951,107.389 156.995,106.718 156.995,106.037L156.995,80.245C156.995,71.703 150.07,64.778 141.528,64.778L141.526,64.778C132.984,64.778 126.059,71.703 126.059,80.245L126.059,106.037C126.059,114.579 132.984,121.504 141.526,121.504L141.528,121.504C141.749,121.504 141.969,121.499 142.187,121.49C146.683,121.749 150.475,124.637 152.049,128.64Z"/>
        </g>
    </g>
</svg>
