<?xml version="1.0" encoding="UTF-8" standalone="no"?>
<!DOCTYPE svg PUBLIC "-//W3C//DTD SVG 1.1//EN" "http://www.w3.org/Graphics/SVG/1.1/DTD/svg11.dtd">
<svg width="100%" height="100%" viewBox="0 0 113 113" version="1.1" xmlns="http://www.w3.org/2000/svg" xmlns:xlink="http://www.w3.org/1999/xlink" xml:space="preserve" xmlns:serif="http://www.serif.com/" style="fill-rule:evenodd;clip-rule:evenodd;stroke-linejoin:round;stroke-miterlimit:2;">
    <g transform="matrix(1,0,0,1,-32.6288,-61.9773)">
        <path d="M70.749,101.374C72.005,96.691 74.47,92.265 78.145,88.59L96.383,70.352C107.549,59.186 125.652,59.186 136.818,70.352L136.819,70.353C147.985,81.519 147.985,99.622 136.819,110.788L118.581,129.026C115.957,131.65 112.949,133.657 109.738,135.048C108.881,135.419 107.93,135.444 107.074,135.145C105.818,139.829 103.352,144.255 99.677,147.93L81.439,166.168C70.274,177.334 52.17,177.333 41.005,166.168L41.003,166.167C29.837,155.001 29.837,136.898 41.003,125.732L59.241,107.494C61.866,104.869 64.874,102.863 68.084,101.472C68.941,101.101 69.893,101.076 70.749,101.374ZM52.878,154.294C57.486,158.903 64.958,158.903 69.566,154.294L87.804,136.056C87.964,135.896 88.119,135.732 88.268,135.565C84.578,134.175 81.117,131.996 78.147,129.026L78.145,129.025C75.175,126.055 72.995,122.594 71.605,118.903C71.438,119.052 71.275,119.207 71.115,119.367L52.877,137.605C48.268,142.213 48.268,149.685 52.856,154.273C52.863,154.28 52.878,154.294 52.878,154.294ZM53.165,159.157C52.876,158.981 51.674,158.12 51.674,158.12C51.674,158.12 50.729,157.331 50.285,156.887L50.284,156.886C44.244,150.846 44.244,141.053 50.284,135.012L68.522,116.774C69.004,116.293 69.509,115.85 70.034,115.445C69.223,111.965 69.058,108.365 69.542,104.836C66.743,106.049 64.122,107.799 61.834,110.086L43.596,128.324C33.862,138.058 33.862,153.84 43.596,163.574L43.597,163.575C53.331,173.309 69.113,173.309 78.847,163.575L97.085,145.337C106.819,135.603 106.819,119.822 97.085,110.088L97.083,110.086C94.425,107.428 91.316,105.496 88.001,104.289C86.282,108.233 86.921,112.957 89.913,116.312C90.076,116.462 90.237,116.616 90.395,116.774L90.397,116.776C96.437,122.816 96.437,132.609 90.397,138.649L72.159,156.887C67.005,162.04 59.12,162.797 53.165,159.157ZM80.739,130.1C81.823,130.1 82.829,129.623 83.514,128.831C85.475,130.289 87.602,131.423 89.821,132.23C91.145,129.192 91.069,125.69 89.593,122.704C89.731,122.603 89.863,122.492 89.986,122.371C89.694,121.795 89.351,121.238 88.958,120.707C88.872,120.874 88.784,121.039 88.698,121.201C88.454,120.857 88.19,120.523 87.903,120.202C87.742,120.054 87.584,119.901 87.427,119.745L87.426,119.744C81.386,113.704 81.386,103.911 87.426,97.87L105.664,79.632C111.704,73.592 121.497,73.592 127.537,79.632L127.539,79.634C133.579,85.674 133.579,95.467 127.539,101.507L109.301,119.745C108.819,120.227 108.314,120.67 107.788,121.075C108.6,124.554 108.764,128.155 108.281,131.683C111.08,130.471 113.701,128.721 115.989,126.433L134.227,108.195C143.961,98.461 143.961,82.68 134.227,72.946L134.225,72.944C124.492,63.21 108.71,63.21 98.976,72.944L80.738,91.182C71.004,100.916 71.004,116.698 80.738,126.432L80.739,126.433C81.617,127.311 82.545,128.11 83.512,128.83C82.828,129.621 81.822,130.099 80.739,130.1ZM46.189,160.981C46.193,160.986 46.198,160.991 46.201,160.993C54.504,169.284 67.956,169.281 76.254,160.982L94.492,142.744C102.794,134.442 102.794,120.982 94.492,112.68L94.491,112.679C93.343,111.531 92.097,110.542 90.779,109.711C90.951,111.164 91.54,112.577 92.544,113.751C92.694,113.892 92.842,114.035 92.988,114.182L92.989,114.183C100.462,121.655 100.462,133.77 92.989,141.242L74.751,159.48C67.279,166.952 55.165,166.952 47.693,159.48L47.691,159.479C40.219,152.006 40.219,139.892 47.691,132.42L65.929,114.182C65.963,114.148 65.996,114.115 66.03,114.082C65.89,113.223 65.785,112.359 65.715,111.491C65.273,111.866 64.843,112.262 64.427,112.679L46.189,130.917C37.887,139.219 37.887,152.679 46.189,160.981ZM106.217,117.616C106.384,117.467 106.548,117.313 106.708,117.152L124.946,98.914C129.554,94.306 129.554,86.834 124.946,82.226L124.945,82.225C120.336,77.617 112.865,77.617 108.257,82.225L90.019,100.463C89.858,100.624 89.704,100.787 89.554,100.954C93.245,102.345 96.706,104.524 99.676,107.494L99.677,107.495C102.647,110.465 104.827,113.926 106.217,117.616Z"/>
        <g transform="matrix(0.707107,0.707107,-0.707107,0.707107,73.2684,-66.2464)">
            <path d="M131.005,110.169C134.201,108.679 137.766,107.846 141.526,107.846L141.528,107.846C155.294,107.846 166.453,119.006 166.453,132.771L166.453,158.564C166.453,172.33 155.294,183.489 141.528,183.489L141.526,183.489C127.76,183.489 116.601,172.33 116.601,158.564L116.601,132.771C116.601,129.536 117.217,126.445 118.339,123.609C120.492,126.446 123.154,128.875 126.188,130.762C126.103,131.42 126.059,132.09 126.059,132.771L126.059,158.564C126.059,167.106 132.984,174.031 141.526,174.031L141.528,174.031C150.07,174.031 156.995,167.106 156.995,158.564L156.995,132.771C156.995,124.229 150.07,117.305 141.528,117.305L141.526,117.305C141.302,117.305 141.079,117.309 140.858,117.319C136.369,117.062 132.578,114.173 131.005,110.169ZM152.049,128.64C148.852,130.13 145.287,130.962 141.528,130.962L141.526,130.962C127.76,130.962 116.601,119.803 116.601,106.037L116.601,80.245C116.601,66.479 127.76,55.32 141.526,55.32L141.528,55.32C155.294,55.32 166.453,66.479 166.453,80.245L166.453,106.037C166.453,109.272 165.837,112.364 164.715,115.2C162.562,112.363 159.9,109.933 156.865,108.047C156.951,107.389 156.995,106.718 156.995,106.037L156.995,80.245C156.995,71.703 150.07,64.778 141.528,64.778L141.526,64.778C132.984,64.778 126.059,71.703 126.059,80.245L126.059,106.037C126.059,114.579 132.984,121.504 141.526,121.504L141.528,121.504C141.749,121.504 141.969,121.499 142.187,121.49C146.683,121.749 150.475,124.637 152.049,128.64Z" style="fill:white;"/>
        </g>
    </g>
</svg>
