<?xml version="1.0" encoding="UTF-8" standalone="no"?>
<!DOCTYPE svg PUBLIC "-//W3C//DTD SVG 1.1//EN" "http://www.w3.org/Graphics/SVG/1.1/DTD/svg11.dtd">
<svg width="100%" height="100%" viewBox="0 0 300 300" version="1.1" xmlns="http://www.w3.org/2000/svg" xmlns:xlink="http://www.w3.org/1999/xlink" xml:space="preserve" xmlns:serif="http://www.serif.com/" style="fill-rule:evenodd;clip-rule:evenodd;stroke-linejoin:round;stroke-miterlimit:2;">
    <path id="outline-main" serif:id="outline main" d="M256.193,98.305C256.718,97.632 257.612,97.367 258.42,97.645C259.227,97.923 259.768,98.682 259.768,99.536C259.768,130.158 259.768,271.421 259.768,271.421C259.768,287.307 246.871,300.204 230.986,300.204L57.559,300.204C41.674,300.204 28.776,287.307 28.776,271.421L28.776,29.636C28.776,13.75 41.674,0.853 57.559,0.853L230.986,0.853C246.842,0.853 259.72,13.702 259.768,29.547C259.768,29.547 259.768,42.916 259.768,48.568C259.768,49.157 259.509,49.716 259.06,50.098C258.611,50.479 258.018,50.644 257.436,50.549C254.316,50.079 251.092,50.802 248.426,52.601C247.813,53.003 247.029,53.038 246.382,52.693C245.735,52.347 245.328,51.677 245.32,50.943L245.102,29.636C245.102,21.845 238.777,15.52 230.986,15.52L57.559,15.52C49.768,15.52 43.443,21.845 43.443,29.636L43.443,271.421C43.443,279.212 49.768,285.537 57.559,285.537L230.986,285.537C238.777,285.537 245.102,279.212 245.102,271.421L245.102,113.185C245.102,112.747 245.248,112.321 245.518,111.975C245.518,111.975 251.972,103.711 256.193,98.305ZM217.074,91.642L72.837,91.642L72.837,85.217L219.125,85.217L219.125,89.015L217.074,91.642ZM214.155,152.141L219.125,152.141L219.125,158.565L209.138,158.565L214.155,152.141ZM188.026,185.603L219.125,185.603L219.125,192.027L183.01,192.027L188.026,185.603ZM143.689,192.027L72.837,192.027L72.837,185.603L144.633,185.603C144.586,185.807 144.548,186.014 144.518,186.223L143.689,192.027ZM164.817,158.565L72.837,158.565L72.837,152.141L169.833,152.141L164.817,158.565ZM190.945,125.103L72.837,125.103L72.837,118.679L195.962,118.679L190.945,125.103ZM219.125,51.755L219.125,58.18L72.837,58.18L72.837,51.755L219.125,51.755ZM219.125,219.065L219.125,225.489L72.837,225.489L72.837,219.065L219.125,219.065ZM219.125,252.526L219.125,258.951L72.837,258.951L72.837,252.526L219.125,252.526ZM158.218,179.546L251.444,60.156C253.261,57.829 256.613,57.409 258.931,59.219L265.915,64.672C268.233,66.482 268.638,69.836 266.821,72.164L173.596,191.553L158.218,179.546ZM169.806,196.406L167.53,199.322L149.38,206.715L152.152,187.314L154.429,184.399L169.806,196.406Z"/>
</svg>
