<?xml version="1.0" encoding="UTF-8" standalone="no"?>
<!DOCTYPE svg PUBLIC "-//W3C//DTD SVG 1.1//EN" "http://www.w3.org/Graphics/SVG/1.1/DTD/svg11.dtd">
<svg width="100%" height="100%" viewBox="0 0 300 300" version="1.1" xmlns="http://www.w3.org/2000/svg" xmlns:xlink="http://www.w3.org/1999/xlink" xml:space="preserve" xmlns:serif="http://www.serif.com/" style="fill-rule:evenodd;clip-rule:evenodd;stroke-linejoin:round;stroke-miterlimit:2;">
    <path d="M150,0C232.787,0 300,67.213 300,150C300,232.787 232.787,300 150,300C67.213,300 0,232.787 0,150C0,67.213 67.213,0 150,0ZM150,14.647C75.297,14.647 14.647,75.297 14.647,150C14.647,224.703 75.297,285.353 150,285.353C224.703,285.353 285.353,224.703 285.353,150C285.353,75.297 224.703,14.647 150,14.647ZM150,223.313C157.796,223.313 164.125,229.642 164.125,237.438C164.125,245.234 157.796,251.563 150,251.563C142.204,251.563 135.875,245.234 135.875,237.438C135.875,229.642 142.204,223.313 150,223.313ZM122.97,106.613L122.418,107.785C121.211,110.351 119.033,112.332 116.364,113.293C113.695,114.253 110.754,114.114 108.188,112.906L105.844,111.803C103.278,110.595 101.297,108.417 100.336,105.748C99.376,103.08 99.515,100.139 100.723,97.573L101.275,96.4C114.173,68.998 134.589,57.967 156.957,58.537C179.34,59.107 201.62,73.005 208.36,98.185C216.165,127.34 195.445,151.088 176.873,161.675C167.997,166.736 164.275,171.544 163.139,174.822C161.642,179.144 161.592,186.401 161.592,194.96L161.592,196.255C161.592,199.091 160.465,201.811 158.46,203.817C156.454,205.822 153.734,206.949 150.898,206.949L148.307,206.949C145.471,206.949 142.751,205.822 140.745,203.817C138.74,201.811 137.613,199.091 137.613,196.255L137.613,194.96C137.613,183.037 138.396,172.992 140.482,166.97C142.623,160.793 148.27,150.38 164.997,140.844C175.919,134.617 189.787,121.532 185.197,104.386C181.437,90.342 168.831,82.826 156.346,82.508C142.67,82.16 130.857,89.859 122.97,106.613Z" style="fill:white;"/>
</svg>
